<svg version="1.2" xmlns="http://www.w3.org/2000/svg" viewBox="0 0 768 840" width="768" height="840">
	<title>4153552-ai</title>
	<style>
		.s0 { opacity: .4;fill: #e2e7ff } 
		.s1 { fill: #61a27d } 
		.s2 { fill: #578b71 } 
		.s3 { fill: #7cc97d } 
		.s4 { fill: #a9a7e7 } 
		.s5 { fill: #24adb2 } 
		.s6 { fill: #26c6da } 
		.s7 { fill: #e1543c } 
		.s8 { fill: #ff634d } 
		.s9 { fill: #eb594d } 
		.s10 { fill: #202f7c } 
		.s11 { fill: #4f57a0 } 
		.s12 { fill: #e2e7ff } 
		.s13 { fill: #243fa7 } 
		.s14 { fill: #ffffff } 
		.s15 { fill: #ff8d68 } 
		.s16 { fill: #c2d3eb } 
		.s17 { fill: #ffc757 } 
		.s18 { fill: #201360 } 
		.s19 { fill: none;stroke: #1b2048;stroke-width: 1.7 } 
		.s20 { fill: none;stroke: #e66657;stroke-width: 2.6 } 
		.s21 { fill: #2e60be } 
		.s22 { fill: #26c6f8 } 
		.s23 { fill: #cae5ff } 
		.s24 { fill: #387ab6 } 
		.s25 { fill: #dce4ff } 
		.s26 { fill: #fba894 } 
		.s27 { fill: #713336 } 
		.s28 { opacity: .5;fill: #505e83 } 
		.s29 { fill: none;stroke: #87b8eb;stroke-width: .7 } 
		.s30 { fill: #6787ff } 
		.s31 { fill: #bfd9ff } 
		.s32 { fill: none;stroke: #a9a7e7;stroke-width: 1.5 } 
		.s33 { fill: #edf4ff } 
		.s34 { opacity: .9;fill: #bfd9ff } 
		.s35 { fill: none;stroke: #a9c2ff;stroke-linecap: round;stroke-linejoin: round;stroke-width: 2.2 } 
		.s36 { fill: none;stroke: #84aee5;stroke-width: .7 } 
		.s37 { fill: #ffa402 } 
		.s38 { fill: #c2d4d9 } 
		.s39 { fill: none;stroke: #202f7c;stroke-width: 2.2 } 
		.s40 { fill: #7a82cc } 
		.s41 { fill: none;stroke: #4f57a0;stroke-width: 2 } 
		.s42 { fill: none;stroke: #ffffff;stroke-width: 4 } 
	</style>
	<g id="OBJECTS">
		<g id="&lt;Group&gt;">
			<g id="&lt;Group&gt;">
				<path id="&lt;Path&gt;" class="s0" d="m364.6 24c200.2 10.7 208.8 225.9 187.3 309.8-21.6 83.9 142 103.3 161.3 241 19.4 137.7-107.6 195.8-197.9 198-90.4 2.1-161.4-51.7-176.5-118.4-15-66.7-58.1-99-133.4-111.9-75.3-12.9-210.9-114-187.2-245.3 0 0 5.6-139.6 136.7-232.4 88.2-62.4 209.7-40.8 209.7-40.8z"/>
				<g id="&lt;Group&gt;">
					<g id="&lt;Group&gt;">
						<g id="&lt;Group&gt;">
							<g id="&lt;Group&gt;">
								<path id="&lt;Path&gt;" class="s1" d="m235.2 353.7c0 0-5.5-69.5 15-115.9 8.2-10.9 13.6-6.8 13.6-6.8 0 0 2.8 28.7-4.1 55.9-6.8 27.3-10.9 80.4-10.9 80.4z"/>
							</g>
							<g id="&lt;Group&gt;">
								<path id="&lt;Path&gt;" class="s2" d="m231.1 348.3c0 0-1.4-32.8-35.4-61.4-34.1-28.6-40.9-28.6-40.9-28.6 0 0 27.2-1.4 46.3 10.9 19.1 12.3 25.9 46.3 27.3 51.8 1.3 5.4 9.5 27.3 9.5 27.3z"/>
							</g>
							<g id="&lt;Group&gt;">
								<path id="&lt;Path&gt;" class="s2" d="m253.2 353.3c0 0 6.4-32.1 44.5-55.2 38.1-23 44.8-22 44.8-22 0 0-26.7-5.5-47.5 3.7-20.7 9.2-32.7 41.8-34.9 47-2.2 5.1-13.6 25.4-13.6 25.4z"/>
							</g>
							<g id="&lt;Group&gt;">
								<path id="&lt;Path&gt;" class="s3" d="m237.9 348.3c0 0-35.4-117.3-66.8-144.5 1.4-4.1 38.2 8.1 49.1 38.1 10.9 30 13.6 75 17.7 87.3 4.1 12.2 9.6 23.1 9.6 23.1"/>
							</g>
							<g id="&lt;Group&gt;">
								<path id="&lt;Path&gt;" class="s3" d="m235.2 353.7c0 0 13.6-64.1 49.1-85.9 2.7 8.2-36.8 75-32.7 105 4 30-16.4-19.1-16.4-19.1z"/>
							</g>
						</g>
						<g id="&lt;Group&gt;">
							<path id="&lt;Path&gt;" class="s4" d="m215.7 425.9h52.5c3.2-21.8 5.9-41.5 6.4-49 1-15.5-4.2-28.6-6.8-34.1h-51.7c-2.6 5.5-7.8 18.6-6.8 34.1 0.5 7.5 3.2 27.2 6.4 49z"/>
						</g>
					</g>
					<g id="&lt;Group&gt;">
						<path id="&lt;Path&gt;" class="s5" d="m693.1 425.4h-96.2v-130h96.2z"/>
						<path id="&lt;Path&gt;" class="s6" d="m683.2 425.4h-96.1v-130h96.1z"/>
					</g>
					<g id="&lt;Group&gt;">
						<path id="&lt;Path&gt;" class="s7" d="m659.2 425.4h-96.2v-143.2h96.2z"/>
						<path id="&lt;Path&gt;" class="s8" d="m649.3 425.4h-110.3v-143.2h110.3z"/>
						<path id="&lt;Path&gt;" class="s9" d="m649.3 425.4h-18.9v-143.2h18.9z"/>
					</g>
					<g id="&lt;Group&gt;">
						<path id="&lt;Path&gt;" class="s10" d="m98.8 318c0 0-15.1 7.5-21.7 29.2-6.6 21.7 29.2 80.1 29.2 77.3 0-2.8 35.9-18.9 35.9-18.9l-17.9-65.9z"/>
					</g>
					<g id="&lt;Group&gt;">
						<path id="&lt;Path&gt;" class="s11" d="m475.5 432.4l-19.9-52.6h-49.8l19.9 52.6"/>
						<g id="&lt;Group&gt;">
							<path id="&lt;Path&gt;" class="s12" d="m294.9 390.2h283l5-26.5h-283.1"/>
							<g id="&lt;Group&gt;">
								<path id="&lt;Path&gt;" class="s13" d="m324.9 229.3l-25.1 134.4h283.1l24.4-131.3c1-5.2-3-10-8.3-10h-265.8c-4.1 0-7.6 2.9-8.3 6.9z"/>
							</g>
						</g>
					</g>
					<path id="&lt;Path&gt;" class="s14" d="m464.3 413.4l74.9-55.8-73.5-4.3-69.3 53.8z"/>
					<path id="&lt;Path&gt;" class="s15" d="m443.3 395.3l18.9-10.4c0 0 18.2-7.5 18.7-7.5 0.5 0 2.1 1.7 0.2 5.4-2 3.8-7.1 4.6-7.1 4.6l-3.4 9.4 17.5-2.5 4-0.9c0 0-2.8 7.1-4 8.7-1.2 1.7-7.8 5.9-7.8 5.9 0 0-12.5 10.4-17 11.6-4.4 1.1-20 1.8-20 1.8l-9.9-0.2-9.2 1.9c0 0-4.7-8.7-4-21z"/>
					<g id="&lt;Group&gt;">
						<g id="&lt;Group&gt;">
							<path id="&lt;Path&gt;" class="s12" d="m555 438.6l54.7 356.3h13.2l-35.8-358.1z"/>
							<path id="&lt;Path&gt;" class="s12" d="m666.2 438.6l54.7 356.3h13.2l-35.8-358.1z"/>
						</g>
						<g id="&lt;Group&gt;">
							<path id="&lt;Path&gt;" class="s16" d="m345.8 438.6l-54.7 356.3h-13.2l35.8-358.1z"/>
							<path id="&lt;Path&gt;" class="s16" d="m234.5 438.6l-54.6 356.3h-13.2l35.8-358.1z"/>
						</g>
						<g id="&lt;Group&gt;">
							<path id="&lt;Path&gt;" class="s4" d="m705.8 451.8h-492v-16.9h492z"/>
						</g>
					</g>
					<g id="&lt;Group&gt;">
						<path id="&lt;Path&gt;" class="s17" d="m715.2 442.4h-486.3c-5.2 0-9.4-4.2-9.4-9.4 0-5.2 4.2-9.4 9.4-9.4h486.3c5.2 0 9.5 4.2 9.5 9.4 0 5.2-4.3 9.4-9.5 9.4z"/>
					</g>
					<g id="&lt;Group&gt;">
						<g id="&lt;Group&gt;">
							<path id="&lt;Path&gt;" class="s18" d="m245.2 759.1c0 0 3.1-7.6 16-6.2 12.9 1.3 14.5 3.7 16.3 10.1 1.8 6.3 6.6 13 9.6 14.3 3 1.4 14.3 8.2 23.2 9.3 9 1 10.2 6.4 8.4 9-1.9 2.5-35.3 6.2-42.8 5.5 0 0-25.2 0.8-31.2-0.9-6-1.7 0.1-38.6 0.5-41.1z"/>
						</g>
						<path id="&lt;Path&gt;" class="s15" d="m248.6 704.8l-3.9 59.1c0 0 9.2 3 16.2 8.1 10.4 7.6 18.9-1.6 18.9-1.6l2.3-37.2z"/>
						<g id="&lt;Group&gt;">
							<path id="&lt;Path&gt;" class="s10" d="m323.6 600.8l-38.2 164c0 0-19.8 2.8-43.8-8.5 0 0 21.2-154.1 22.6-164 1.4-9.9 56.6 0 59.4 8.5z"/>
						</g>
						<g id="&lt;Group&gt;">
							<path id="&lt;Path&gt;" class="s15" d="m168.9 176.4c0 0 15.6 3 25.9 26 10.3 23.1 7.9 73.8 2.4 80.1-5.4 6.3-23.2 5.2-48.3-1.3-26.4-6.8-37-33.1-42.8-50.6-11.1-33.4 16.1-70.4 62.8-54.2z"/>
							<path id="&lt;Path&gt;" class="s15" d="m125.4 311.5l9-43.1c0 0 23.2-8.5 39 6.3l5.4 6.5 1.8 27.6c0 0-24.3 6.6-55.2 2.7z"/>
							<g id="&lt;Group&gt;">
								<path id="&lt;Path&gt;" class="s18" d="m124.9 577.1c0 0 50.5 14.7 110.4 12.7 59.9-2 67.8-19 69.7-35.2 1.8-16.2-44.8-26.1-65-31.4-20.3-5.3-89.6-25.2-108.4-5-18.7 20.2-23.1 45-6.7 58.9z"/>
							</g>
							<g id="&lt;Group&gt;">
								<path id="&lt;Path&gt;" class="s18" d="m385.1 759.1c0 0 3.1-7.6 16.1-6.2 12.9 1.3 14.5 3.7 16.3 10.1 1.8 6.3 6.6 13 9.6 14.3 3 1.4 14.2 8.2 23.2 9.3 8.9 1 10.2 6.4 8.3 9-1.8 2.5-35.3 6.2-42.7 5.5 0 0-25.2 0.8-31.2-0.9-6-1.7 0.1-38.6 0.4-41.1z"/>
							</g>
						</g>
						<path id="&lt;Path&gt;" class="s15" d="m370.3 709.2l14.1 57.4c0 0 11.3-2.8 17.9 2.9 6.6 5.6 18.9 1.9 18.9 1.9l-10.4-45.3z"/>
						<g id="&lt;Group&gt;">
							<path id="&lt;Path&gt;" class="s10" d="m253.4 516.9c2.8 0 99 32 117.8 46.2 18.9 15 49 183 50.9 186.8 1.9 3.8-27.3 14.2-46.2 11.3-0.9-3.7-45.2-145.4-45.2-154.8 0 0-75.4-3.8-107.5-9.4-32-5.7-53.7-6.6-66.9-41.5-13.2-34.9 64.1-37.7 64.1-37.7z"/>
						</g>
						<path id="&lt;Path&gt;" class="s12" d="m417.9 392.9c0 0 18.3-0.4 19.8 1.4 1.4 1.9 8 18.9 1.8 26-5.1 3.7-5.1 3.7-5.1 3.7h-16.1z"/>
						<path id="&lt;Path&gt;" class="s12" d="m122.1 305.3l5-12.8c0 0 29.7-9.1 55.1 2.2 6.4 6.3 9.9 16.2 9.9 16.2z"/>
						<g id="&lt;Group&gt;">
							<path id="&lt;Path&gt;" class="s10" d="m115.8 306.7c0 0 3.7-6.6 10.3-7.6 6.6-0.9 36.8-4.7 56.6 1 7.5 2.8 11.3 6.6 11.3 6.6 0 0 28.3 9.4 37.7 15.1 9.4 5.6 12.3 49 14.1 63.1 1.9 14.2-3.7 29.2-3.7 29.2 0 0 22.6 92.4 22.6 105.6 0 13.2-7.5 28.3-33.9 37.7-26.4 9.4-98.1 5.7-122.6-9.4-7.5-15.1-18.8-194.2-20.7-211.2-1.9-16.9 28.3-30.1 28.3-30.1z"/>
						</g>
						<g id="&lt;Group&gt;">
							<path id="&lt;Path&gt;" class="s10" d="m216.2 318c0 0 7-4.3 24 7.1 17 11.3 63.6 53.7 69.3 56.5 5.6 2.8 114.5 8.5 114.5 8.5 0 0 15.5 19.8-1.4 35.3 0 0-105.1 4.3-124.9 2.9-19.8-1.4-85.8-39.6-85.8-39.6 0 0-26.8-39.6 4.3-70.7z"/>
						</g>
					</g>
					<g id="&lt;Group&gt;">
						<g id="&lt;Group&gt;">
							<path id="&lt;Path&gt;" class="s19" d="m193.5 380.4c0 0 88.1 46.2 98.4 47.7 10.3 1.5 49.2 0 49.2 0"/>
						</g>
						<path id="&lt;Path&gt;" class="s19" d="m312.5 392.1c0 0 2.9 16.2-7.4 25.7"/>
						<path id="&lt;Path&gt;" class="s19" d="m319.1 387.7c0 0 8.8 14 4.4 24.3"/>
						<path id="&lt;Path&gt;" class="s19" d="m192.8 362c0 0-7.4-25.7 18.3-42.6"/>
						<path id="&lt;Path&gt;" class="s19" d="m98 337.8c0 0-5.1 45.5-5.1 66.8"/>
						<path id="&lt;Path&gt;" class="s19" d="m124.5 307.7c0 0 33.7-3 61.7 0"/>
						<path id="&lt;Path&gt;" class="s19" d="m345.5 603.7c0 0 16.2-5.2 22.1-30.1"/>
						<path id="&lt;Path&gt;" class="s19" d="m356.6 605.9c0 0 9.5-3 13.9-16.2"/>
						<path id="&lt;Path&gt;" class="s19" d="m297.8 634.5l-24.2 121.2"/>
					</g>
					<path id="&lt;Path&gt;" class="s18" d="m191.4 207c0 0 2.8 12.7-8.5 21.2l0.7 14.1c0 0 4.3 12.8 1.5 14.2-2.9 1.4-3.6-0.7-3.6-0.7 0 0-9.2-14.9-12-15.6-2.8-0.7 6.4 19.8 6.4 19.8 0 0-9.2 14.2-26.2 16.3l3.5-5c0 0-7.7 5-19.8 4.3-12-0.7-21.2-19.1-21.2-19.1 0 0 2.2 4.9 0 7.1-2.1 2.1-14.1-16.3-14.8-39.6l-3.5 7c0 0 0.7-16.2 7-34.6 6.4-18.4 34.7-31.8 50.2-31.8 15.6 0 31.1 1.4 35.4 0 4.2-1.4 2.1 10.6 2.1 10.6 0 0 2.1-5 2.8-9.2 2.8-2.1 7.1 14.8 5.7 21.2-1.4 6.4-1.4 6.4-1.4 6.4 0 0 4.9-6.4 5.6-9.9 2.8-0.7 2.1 14.8-9.9 23.3z"/>
					<path id="&lt;Path&gt;" class="s8" d="m181.2 242.2c0 0-2.9-9.4-10.7-4.5-7.9 5 3.3 27.3 9.8 25.4 6.6-1.9 2.6-17.3 0.9-20.9z"/>
					<path id="&lt;Path&gt;" class="s20" d="m468.1 406.1l20-4 4-8.7"/>
					<path id="&lt;Path&gt;" class="s20" d="m487.4 402.6c0 0-10.2 8.5-11.6 9.2-1.4 0.7-7.7 2.3-7.7 2.3"/>
					<path id="&lt;Path&gt;" class="s20" d="m178 266.1c0 0-2.8 9.9 14.1 15.6"/>
					<g id="&lt;Group&gt;">
						<path id="&lt;Path&gt;" class="s21" d="m564.4 340.6h-150.8l18.9-98h150.8z"/>
					</g>
					<g id="&lt;Group&gt;">
						<path id="&lt;Path&gt;" class="s22" d="m365.2 276.5c-0.6 2.8 1.6 5.4 4.4 5.4h164.2c2.2 0 4.1-1.5 4.5-3.7l2.4-12.5h-173.5z"/>
						<path id="&lt;Path&gt;" class="s23" d="m553.7 169.2h-164.1c-2.2 0-4.1 1.5-4.5 3.7l-17.9 92.8h173.5l17.5-91.1c0.6-2.8-1.6-5.4-4.5-5.4z"/>
					</g>
					<g id="&lt;Group&gt;">
						<path id="&lt;Path&gt;" class="s24" d="m441.5 282c2.2-6 3.5-10.2 3.5-10.2 0 0 4.9-25.9-17.1-19.3 0 0-7.7 5.8-11.3 17.9-1.1 3.8-2.4 7.8-3.7 11.6z"/>
						<path id="&lt;Path&gt;" class="s25" d="m487.2 282c-0.4-12.8-1.2-23-2.6-25.7-4-7.5-20.6-14.2-20.6-14.2l-22.6 3.3c0 0-9.5 2.7-12.5 9.5-1 2.3-3.5 13.3-6.1 27.1z"/>
						<path id="&lt;Path&gt;" class="s15" d="m445.3 226.8c0 0-1.4 10.1-4.4 17.5 0 0-0.8 5.7 11.2 3.2 12-2.4 10.4-8.4 10.4-8.4v-23.8z"/>
						<g id="&lt;Group&gt;">
							<g id="&lt;Group&gt;">
								<path id="&lt;Path&gt;" class="s15" d="m428.4 201.7c0 0 0.1 22.7 6.6 33.6 4.4 4.5 19.5-2.7 25.9-12.4 6.4-9.7 6.2-24.3 1.2-32.5-5-8.1-21.6-5.7-26.5-2.9-4.8 2.8-7.5 10.6-7.2 14.2z"/>
							</g>
							<path id="&lt;Path&gt;" class="s26" d="m458.9 214.5c0 0 4.3-6.6 7.1-2.6 2.9 3.9-7 11.9-7.8 8.8-0.7-3 0.7-6.2 0.7-6.2z"/>
						</g>
						<g id="&lt;Group&gt;">
							<path id="&lt;Path&gt;" class="s27" d="m428.4 201.7c0 0-8-6.9 1.6-16 5.5-4.1 8.2-1.1 13.9-2.2 5.8-1 16.2 0 20 6.1 3.8 6 2.5 19.9 1.4 21.3-1.1 1.4-4.4 2.2-4.4 4.6 0 2.5-0.5 4.4-1.4 4.4-0.8 0-0.8-4.1-0.8-7.1 0-3-0.5-8.7-1.9-12.8-1.4-4.1-7.7-3.9-10.1-3.3-2.5 0.5-4.1 6.8-18.3 5z"/>
						</g>
						<g id="&lt;Group&gt;">
							<path id="&lt;Path&gt;" class="s28" d="m458.2 208.5c0 0 0.1-0.1 0.4-0.2q0 0 0 0z"/>
							<g id="&lt;Group&gt;">
								<g id="&lt;Group&gt;">
									<path id="&lt;Compound Path&gt;" fill-rule="evenodd" class="s27" d="m462 210c-0.8 3.9-0.5 9.6-1.1 12.5-0.7 2.9-3.1 5.1-6.9 8.4-3.8 3.4-12.4 7.9-16 6.4-3.6-1.4-5.9-6.9-5.6-7.8 1.6 0.8 1.2-0.5 2.9-3.3 1.9-2.8 5.4-3 9.7-2.4 4.3 0.7 4.5 5.3 9.9 1.7 5.2-3.6 3.8-16.7 3.7-17.2 1.1-0.4 3.8-1.3 3.4 1.7zm-14.8 17c-1.9-3.9-7.5-1.4-7.5-1.4-5.3 1.7-6 5.8-0.8 6.9 5.2 1.1 9.1-2.9 8.3-5.5z"/>
								</g>
							</g>
						</g>
						<path id="&lt;Path&gt;" class="s14" d="m462.5 237.3c0 0-6.6 8.3-17.4 9.3-2.2-0.8-3.4-4.9-3.4-4.9l-1.7 2.6c0 0-0.8 5 0 7.1 1.1 0.1 4.8-2.4 4.8-2.4 0 0 2.5 3.5 4.4 4.2 1.8 0.7 13.6-7.2 14.8-11.1 0 0-0.1-2.8-1.5-4.8z"/>
						<path id="&lt;Path&gt;" class="s24" d="m488.9 282c-0.6-12.6-1.3-22.2-2-24.2-2.7-6.3-12.9-14.4-22.9-15.7 0 0-3.7 17.3-7.4 39.9z"/>
						<path id="&lt;Path&gt;" class="s24" d="m430.6 282c5.3-22.5 9.4-35.9 9.4-35.9-3 0.4-8.4 2.7-12.1 6.4-2 4.1-5.2 15.6-8.4 29.5z"/>
						<path id="&lt;Path&gt;" class="s24" d="m486.9 282c0.4-12-0.3-23.2-2.3-25.7-6.4-5.5-13.2-5.1-16.5 1-1.9 3.3-4.3 14.9-6.2 24.7z"/>
						<path id="&lt;Path&gt;" class="s29" d="m444.8 249c-1.9 7.8-3.5 15.7-5 23.6"/>
					</g>
					<g id="&lt;Group&gt;">
						<path id="&lt;Path&gt;" class="s30" d="m582.8 164.6c-4.7 18.8-23.7 34-42.4 34-18.8 0-30.2-15.2-25.5-34 4.7-18.7 23.7-33.9 42.4-33.9 18.8 0 30.2 15.2 25.5 33.9z"/>
						<path id="&lt;Path&gt;" class="s30" d="m589.7 201.1c-1.3 5.1-6.5 9.3-11.6 9.3-5.2 0-8.3-4.2-7-9.3 1.3-5.2 6.5-9.3 11.6-9.3 5.1 0 8.3 4.1 7 9.3z"/>
						<path id="&lt;Path&gt;" class="s14" d="m540.1 181.9c-1.1 0-2-0.5-2.7-1.3l-8.7-11.7c-1.2-1.6-0.6-4.2 1.4-5.9 2.1-1.6 4.7-1.6 5.9 0l6.6 8.8 23.4-18.8c2.1-1.6 4.7-1.6 5.9 0 1.3 1.7 0.6 4.3-1.4 5.9l-27.2 21.7c-1 0.8-2.1 1.3-3.2 1.3z"/>
					</g>
					<g id="&lt;Group&gt;">
						<g id="&lt;Group&gt;">
							<path id="&lt;Path&gt;" class="s31" d="m299.4 108h-11.1c-2.8 0-4.5-2.2-3.8-5l2.8-11.1c0.7-2.8 3.5-5.1 6.3-5.1h11.1c2.8 0 4.5 2.3 3.8 5.1l-2.8 11.1c-0.7 2.8-3.5 5-6.3 5z"/>
						</g>
						<g id="&lt;Group&gt;">
							<g id="&lt;Group&gt;">
								<path id="&lt;Path&gt;" class="s32" d="m291.3 140.6h-11.1c-2.8 0-4.5-2.3-3.8-5.1l2.8-11.1c0.7-2.8 3.5-5 6.3-5h11.1c2.8 0 4.5 2.2 3.8 5l-2.8 11.1c-0.7 2.8-3.5 5.1-6.3 5.1z"/>
							</g>
							<path id="&lt;Path&gt;" class="s6" d="m326.6 140.6h-11.1c-2.7 0-4.4-2.3-3.7-5.1l2.7-11.1c0.7-2.8 3.5-5 6.3-5h11.1c2.8 0 4.5 2.2 3.8 5l-2.8 11.1c-0.7 2.8-3.5 5.1-6.3 5.1z"/>
							<path id="&lt;Path&gt;" class="s14" d="m362 140.6h-11.1c-2.8 0-4.5-2.3-3.8-5.1l2.7-11.1c0.7-2.8 3.6-5 6.3-5h11.1c2.8 0 4.5 2.2 3.8 5l-2.7 11.1c-0.7 2.8-3.5 5.1-6.3 5.1z"/>
						</g>
						<g id="&lt;Group&gt;">
							<path id="&lt;Path&gt;" class="s6" d="m283 173.9h-11.1c-2.8 0-4.5-2.3-3.8-5.1l2.8-11.1c0.7-2.8 3.5-5 6.3-5h11.1c2.8 0 4.5 2.2 3.8 5l-2.8 11.1c-0.7 2.8-3.5 5.1-6.3 5.1z"/>
							<path id="&lt;Path&gt;" class="s14" d="m274.1 209.5h-11.1c-2.7 0-4.4-2.3-3.7-5.1l2.7-11.1c0.7-2.8 3.5-5 6.3-5h11.1c2.8 0 4.5 2.2 3.8 5l-2.8 11.1c-0.6 2.8-3.5 5.1-6.3 5.1z"/>
							<path id="&lt;Path&gt;" class="s33" d="m318.3 173.9h-11.1c-2.8 0-4.4-2.3-3.8-5.1l2.8-11.1c0.7-2.8 3.5-5 6.3-5h11.1c2.8 0 4.5 2.2 3.8 5l-2.8 11.1c-0.7 2.8-3.5 5.1-6.3 5.1z"/>
							<g id="&lt;Group&gt;">
								<path id="&lt;Path&gt;" class="s32" d="m302.9 236h-11.1c-2.8 0-4.5-2.3-3.8-5.1l2.7-11.1c0.7-2.8 3.6-5 6.3-5h11.1c2.8 0 4.5 2.2 3.8 5l-2.7 11.1c-0.7 2.8-3.6 5.1-6.3 5.1z"/>
							</g>
						</g>
					</g>
					<g id="&lt;Group&gt;">
						<g id="&lt;Group&gt;">
							<path id="&lt;Path&gt;" class="s23" d="m636.8 192.8h-4c-1.1 0-1.7-0.8-1.4-1.8l1-4.1c0.3-1 1.3-1.9 2.3-1.9h4.1c1 0 1.6 0.9 1.4 1.9l-1 4.1c-0.3 1-1.3 1.8-2.4 1.8z"/>
						</g>
						<g id="&lt;Group&gt;">
							<g id="&lt;Group&gt;">
								<path id="&lt;Path&gt;" class="s23" d="m633.9 204.8h-4.1c-1 0-1.7-0.9-1.4-1.9l1-4.1c0.3-1 1.3-1.8 2.3-1.8h4.1c1 0 1.7 0.8 1.4 1.8l-1 4.1c-0.3 1-1.3 1.9-2.3 1.9z"/>
							</g>
							<path id="&lt;Path&gt;" class="s23" d="m646.8 204.8h-4c-1.1 0-1.7-0.9-1.4-1.9l1-4.1c0.2-1 1.3-1.8 2.3-1.8h4.1c1 0 1.6 0.8 1.4 1.8l-1 4.1c-0.3 1-1.3 1.9-2.4 1.9z"/>
							<path id="&lt;Path&gt;" class="s23" d="m659.8 204.8h-4.1c-1 0-1.6-0.9-1.4-1.9l1.1-4.1c0.2-1 1.2-1.8 2.3-1.8h4c1.1 0 1.7 0.8 1.4 1.8l-1 4.1c-0.2 1-1.3 1.9-2.3 1.9z"/>
						</g>
						<g id="&lt;Group&gt;">
							<path id="&lt;Path&gt;" class="s23" d="m630.8 217h-4.1c-1 0-1.6-0.8-1.3-1.9l1-4c0.2-1.1 1.3-1.9 2.3-1.9h4.1c1 0 1.6 0.8 1.4 1.9l-1.1 4c-0.2 1.1-1.3 1.9-2.3 1.9z"/>
							<path id="&lt;Path&gt;" class="s23" d="m627.6 230.1h-4.1c-1 0-1.7-0.9-1.4-1.9l1-4.1c0.3-1 1.3-1.8 2.3-1.8h4.1c1 0 1.6 0.8 1.4 1.8l-1 4.1c-0.3 1-1.3 1.9-2.3 1.9z"/>
							<path id="&lt;Path&gt;" class="s23" d="m643.8 217h-4.1c-1 0-1.6-0.8-1.4-1.9l1-4c0.3-1.1 1.3-1.9 2.4-1.9h4c1.1 0 1.7 0.8 1.4 1.9l-1 4c-0.3 1.1-1.3 1.9-2.3 1.9z"/>
							<g id="&lt;Group&gt;">
								<path id="&lt;Path&gt;" class="s23" d="m638.1 239.8h-4.1c-1 0-1.6-0.8-1.4-1.9l1.1-4c0.2-1.1 1.2-1.9 2.3-1.9h4c1.1 0 1.7 0.8 1.4 1.9l-1 4c-0.2 1.1-1.3 1.9-2.3 1.9z"/>
							</g>
						</g>
					</g>
					<g id="&lt;Group&gt;">
						<path id="&lt;Path&gt;" class="s34" d="m635.5 347.2h-134c-1.4 0-2.4-1.3-2-2.6l12.5-48.1c0.2-1 1.1-1.6 2.1-1.6h134c1.4 0 2.4 1.3 2 2.7l-12.5 48c-0.2 1-1.1 1.6-2.1 1.6z"/>
						<g id="&lt;Group&gt;">
							<path id="&lt;Path&gt;" class="s35" d="m519.9 305.2h46.6"/>
							<path id="&lt;Path&gt;" class="s35" d="m516.3 326.7h46.7"/>
							<path id="&lt;Path&gt;" class="s35" d="m535.9 318.6h46.7"/>
							<path id="&lt;Path&gt;" class="s35" d="m518.7 312.3h14"/>
							<path id="&lt;Path&gt;" class="s35" d="m516.8 318.6h14"/>
							<path id="&lt;Path&gt;" class="s35" d="m574 305.2h16.6"/>
							<path id="&lt;Path&gt;" class="s36" d="m582.1 336.8h-24.8c-0.1 0-0.2-0.1-0.2-0.3l1.1-4.2q0.1-0.2 0.2-0.2h24.8c0.1 0 0.2 0.1 0.2 0.3l-1.1 4.2q-0.1 0.2-0.2 0.2z"/>
							<path id="&lt;Path&gt;" class="s36" d="m551.3 336.8h-24.9c-0.1 0-0.2-0.1-0.1-0.3l1.1-4.2q0-0.2 0.2-0.2h24.8c0.1 0 0.2 0.1 0.2 0.3l-1.2 4.2q0 0.2-0.1 0.2z"/>
						</g>
						<path id="&lt;Path&gt;" class="s24" d="m625.7 330.6c-1.3-1.7-6.4-2.9-7.8-4.6-0.8-0.9-0.8-2.5-0.6-3.9 0.5-0.3 0.9-0.6 1.2-0.9 0.4-0.6 0.9-1.5 1.4-2.5 0.1 0.2 0.3 0.3 0.6 0.3 0.7-0.1 3.2-3.6 2.6-4.4-0.4-0.4-1 0-1.5 0.4 0.7-1.6 1.2-2.8 1.2-2.8q0.1-0.3 0.1-0.6c1.1-4.1-1.4-7.4-5.5-7.4-4.2 0-8.3 3.3-9.3 7.4q-0.1 0.3-0.2 0.6c0 0-0.1 1.2-0.2 2.8-0.2-0.4-0.7-0.8-1.3-0.4-1 0.8-0.2 4.3 0.5 4.4 0.2 0 0.5-0.1 0.7-0.3 0 1 0 1.9 0.1 2.5 0.2 0.4 0.5 0.8 1 1.1-0.5 1.4-1.3 2.9-2.4 3.7-2.3 1.7-8 2.9-10.2 4.6-1.9 1.5-3.6 6-3.9 6.8h34c0.1-0.8 0.7-5.3-0.5-6.8z"/>
					</g>
					<g id="&lt;Group&gt;">
						<path id="&lt;Path&gt;" class="s14" d="m453.9 330.1h-110c-9.6 0-15.5-7.8-13.1-17.5 2.4-9.6 12.2-17.4 21.8-17.4h110c9.6 0 15.5 7.8 13.1 17.4-2.4 9.7-12.2 17.5-21.8 17.5z"/>
						<g id="&lt;Group&gt;">
							<g id="&lt;Group&gt;">
								<path id="&lt;Path&gt;" class="s37" d="m355.6 317.2l-4.7 2.2c-0.5 0.2-0.9-0.1-0.7-0.6l2-4.6q0.1-0.3-0.1-0.5l-2.5-3.3c-0.3-0.3 0.1-0.8 0.5-0.9l4.8-0.7c0.2 0 0.4-0.1 0.5-0.3l3.1-4.2c0.3-0.4 0.9-0.4 1 0l1 4.2q0.1 0.3 0.4 0.3l4.5 0.7c0.4 0.1 0.4 0.6 0 0.9l-4.2 3.3c-0.1 0.1-0.2 0.3-0.2 0.5l-0.4 4.6c0 0.5-0.6 0.8-0.9 0.6l-3.6-2.2q-0.3-0.1-0.5 0z"/>
							</g>
							<g id="&lt;Group&gt;">
								<path id="&lt;Path&gt;" class="s37" d="m378.8 317.2l-4.7 2.2c-0.5 0.2-0.9-0.1-0.7-0.6l2-4.6q0.1-0.3-0.1-0.5l-2.5-3.3c-0.2-0.3 0.1-0.8 0.5-0.9l4.8-0.7c0.2 0 0.4-0.1 0.5-0.3l3.2-4.2c0.3-0.4 0.8-0.4 0.9 0l1.1 4.2q0 0.3 0.3 0.3l4.5 0.7c0.4 0.1 0.4 0.6 0 0.9l-4.2 3.3c-0.1 0.1-0.2 0.3-0.2 0.5l-0.4 4.6c0 0.5-0.6 0.8-0.9 0.6l-3.6-2.2q-0.2-0.1-0.5 0z"/>
							</g>
							<g id="&lt;Group&gt;">
								<path id="&lt;Path&gt;" class="s37" d="m402 317.2l-4.7 2.2c-0.5 0.2-0.8-0.1-0.7-0.6l2-4.6q0.1-0.3 0-0.5l-2.6-3.3c-0.2-0.3 0.1-0.8 0.5-0.9l4.9-0.7c0.1 0 0.3-0.1 0.4-0.3l3.2-4.2c0.3-0.4 0.8-0.4 0.9 0l1.1 4.2q0 0.3 0.3 0.3l4.5 0.7c0.4 0.1 0.5 0.6 0.1 0.9l-4.2 3.3c-0.2 0.1-0.3 0.3-0.3 0.5l-0.4 4.6c0 0.5-0.5 0.8-0.9 0.6l-3.6-2.2q-0.2-0.1-0.5 0z"/>
							</g>
							<g id="&lt;Group&gt;">
								<path id="&lt;Path&gt;" class="s37" d="m425.2 317.2l-4.7 2.2c-0.4 0.2-0.8-0.1-0.6-0.6l1.9-4.6q0.1-0.3 0-0.5l-2.6-3.3c-0.2-0.3 0.1-0.8 0.5-0.9l4.9-0.7c0.2 0 0.3-0.1 0.5-0.3l3.1-4.2c0.3-0.4 0.9-0.4 0.9 0l1.1 4.2q0 0.3 0.3 0.3l4.5 0.7c0.4 0.1 0.5 0.6 0.1 0.9l-4.2 3.3c-0.2 0.1-0.3 0.3-0.3 0.5l-0.4 4.6c0 0.5-0.5 0.8-0.9 0.6l-3.6-2.2q-0.2-0.1-0.5 0z"/>
							</g>
							<g id="&lt;Group&gt;">
								<path id="&lt;Path&gt;" class="s38" d="m448.4 317.2l-4.7 2.2c-0.4 0.2-0.8-0.1-0.6-0.6l1.9-4.6q0.1-0.3 0-0.5l-2.6-3.3c-0.2-0.3 0.1-0.8 0.6-0.9l4.8-0.7c0.2 0 0.3-0.1 0.5-0.3l3.1-4.2c0.3-0.4 0.9-0.4 1 0l1 4.2q0.1 0.3 0.3 0.3l4.5 0.7c0.4 0.1 0.5 0.6 0.1 0.9l-4.2 3.3c-0.2 0.1-0.3 0.3-0.3 0.5l-0.3 4.6c-0.1 0.5-0.6 0.8-1 0.6l-3.6-2.2q-0.2-0.1-0.5 0z"/>
							</g>
						</g>
					</g>
					<g id="&lt;Group&gt;">
						<g id="&lt;Group&gt;">
							<path id="&lt;Path&gt;" class="s10" d="m192.6 250c0 7-4.1 12.7-9.1 12.7-5 0-9.1-5.7-9.1-12.7 0-7 4.1-12.7 9.1-12.7 5 0 9.1 5.7 9.1 12.7z"/>
						</g>
						<path id="&lt;Path&gt;" class="s39" d="m184.9 251.1c0 0 25.3 28.1 25.3 32.5 0 4.4-8.3 3.9-8.3 3.9"/>
						<g id="&lt;Group&gt;">
							<path id="&lt;Path&gt;" class="s10" d="m203.9 287.5c0 1.8-1.5 3.3-3.3 3.3-1.9 0-3.3-1.5-3.3-3.3 0-1.9 1.4-3.3 3.3-3.3 1.8 0 3.3 1.4 3.3 3.3z"/>
						</g>
					</g>
				</g>
				<g id="&lt;Group&gt;">
					<path id="&lt;Path&gt;" class="s11" d="m139.8 616.3c9 15.5 37.2 26.9 70.7 26.9 33.5 0 61.7-11.4 70.7-26.9z"/>
					<g id="&lt;Group&gt;">
						<g id="&lt;Group&gt;">
							<path id="&lt;Path&gt;" class="s4" d="m330.7 536.7l-17 78.2h-10.4l9.5-76.4z"/>
						</g>
						<g id="&lt;Group&gt;">
							<g id="&lt;Group&gt;">
								<path id="&lt;Path&gt;" class="s40" d="m361.8 543.3h-151.9v-18.9h136.8c8.3 0 15.1 6.8 15.1 15.1z"/>
							</g>
							<g id="&lt;Group&gt;">
								<g id="&lt;Group&gt;">
									<path id="&lt;Path&gt;" class="s4" d="m85.6 606.4l-36.7-176.8c-1.5-7 3.9-13.6 11-13.6h121.7c6.7 0 12.4 4.7 13.8 11.3l37.2 179.1"/>
								</g>
								<g id="&lt;Group&gt;">
									<path id="&lt;Path&gt;" class="s4" d="m335.4 625.8h-231c-7.8 0-14.6-5.1-16.8-12.6l-2-6.8h249.8z"/>
								</g>
							</g>
						</g>
					</g>
					<path id="&lt;Path&gt;" class="s12" d="m221.8 798.7h-18.4v-164h18.4z"/>
					<path id="&lt;Path&gt;" class="s11" d="m221.8 665.1l-18.4 14.8v-45.2h18.4z"/>
					<path id="&lt;Path&gt;" class="s12" d="m221.2 774.3h-6.7-1.7-6.7l-68.9 27.3h152.9z"/>
					<g id="&lt;Group&gt;">
						<path id="&lt;Path&gt;" class="s41" d="m65.1 428.1h109.3"/>
						<path id="&lt;Path&gt;" class="s41" d="m185.7 440.8l18.7 94"/>
						<path id="&lt;Path&gt;" class="s41" d="m207.7 551.4l4 27.4"/>
					</g>
				</g>
			</g>
			<g id="&lt;Group&gt;">
				<path id="&lt;Path&gt;" class="s23" d="m717.4 270.1h-88c-4.6 0-8-4-7.3-8.5l0.6-4.3c0.6-3.5 3.7-6.2 7.3-6.2h88.1c4.5 0 8 4.1 7.3 8.6l-0.7 4.2c-0.6 3.6-3.7 6.2-7.3 6.2z"/>
				<path id="&lt;Path&gt;" class="s42" d="m633.1 260.8h76"/>
			</g>
			<g id="&lt;Group&gt;">
				<path id="&lt;Path&gt;" class="s8" d="m396.7 160.8h-24c-11.4 0-22.6 9.2-25 20.6-2.5 11.5 4.8 20.7 16.2 20.7h5.3c5.8 13.8 19.5 12 19.5 12-2.6-5.2-3.1-9.3-3.1-12h2.3c11.5 0 22.7-9.2 25.1-20.7 2.4-11.4-4.9-20.6-16.3-20.6z"/>
				<path id="&lt;Path&gt;" class="s42" d="m362.5 177.4h22.7"/>
				<path id="&lt;Path&gt;" class="s42" d="m360.6 186.4h36.8"/>
			</g>
		</g>
	</g>
</svg>