<svg width="42" height="42" viewBox="0 0 42 42" fill="none" xmlns="http://www.w3.org/2000/svg">
<path d="M14.0576 17.625C15.2148 19.9821 16.4512 22.1895 16.1656 24.9052C15.7091 29.2466 10.4449 30.8806 7.07849 32.8807C4.87298 34.191 5.69758 37.875 8.40419 37.875C11.6858 37.875 14.6146 37.6131 17.5754 36.2214L23.3812 32.6485C24.1872 32.2696 25.2041 32.4311 26.0625 32.8125" stroke="white" stroke-width="2.5" stroke-linecap="round" stroke-linejoin="round"/>
<path d="M27.7677 17.625C26.586 19.9821 25.3234 22.1895 25.615 24.9052C26.0812 29.2466 31.4569 30.8806 34.8947 32.8807C37.1468 34.191 36.3048 37.875 33.5408 37.875C30.1898 37.875 27.1989 37.6131 24.1754 36.2214L18.2465 32.6485C17.5544 32.3299 16.71 32.3935 15.9375 32.6485" stroke="white" stroke-width="2.5" stroke-linecap="round" stroke-linejoin="round"/>
<path d="M17.625 7.5C17.625 9.36396 19.136 10.875 21 10.875C22.864 10.875 24.375 9.36396 24.375 7.5C24.375 5.63604 22.864 4.125 21 4.125C19.136 4.125 17.625 5.63604 17.625 7.5Z" stroke="white" stroke-width="2.5"/>
<path d="M5.8125 27.75C9.93989 27.75 11.7925 23.1851 12.3825 20.0366C12.5366 19.2148 12.786 18.3953 13.3324 17.7624C15.1891 15.6114 17.9355 14.25 21 14.25C24.0645 14.25 26.8109 15.6114 28.6675 17.7624C29.2139 18.3953 29.4635 19.2148 29.6176 20.0366C30.2075 23.1851 32.06 27.75 36.1875 27.75" stroke="white" stroke-width="2.5" stroke-linecap="round" stroke-linejoin="round"/>
</svg>
